<?xml version="1.0" standalone="no"?>
<!DOCTYPE svg PUBLIC "-//W3C//DTD SVG 20010904//EN"
 "http://www.w3.org/TR/2001/REC-SVG-20010904/DTD/svg10.dtd">
<svg version="1.0" xmlns="http://www.w3.org/2000/svg"
 width="400.000000pt" height="400.000000pt" viewBox="0 0 400.000000 400.000000"
 preserveAspectRatio="xMidYMid meet">
<metadata>
Created by potrace 1.11, written by Peter Selinger 2001-2013
</metadata>
<g transform="translate(0.000000,400.000000) scale(0.100000,-0.100000)"
fill="#000000" stroke="none">
<path d="M1682 2683 c-45 -65 -86 -180 -91 -259 -1 -6 -24 -14 -52 -17 -100
-12 -249 -87 -249 -126 0 -42 42 -151 84 -216 l44 -69 -28 -35 c-42 -52 -79
-132 -92 -197 -11 -54 -10 -57 13 -76 58 -46 151 -83 236 -94 44 -5 43 -4 48
-40 3 -16 8 -45 11 -64 7 -45 56 -148 84 -178 19 -20 28 -23 69 -17 57 7 138
44 200 89 l47 35 25 -22 c55 -51 145 -92 222 -102 42 -6 47 -4 71 27 44 59 65
117 90 245 4 20 14 26 53 29 55 4 145 38 202 75 53 35 53 35 30 124 -13 47
-50 129 -61 133 -4 2 -8 10 -8 18 0 8 -3 14 -8 14 -4 0 -13 9 -20 20 -11 18
-8 27 24 72 20 29 42 69 50 88 22 50 43 146 35 157 -3 5 -33 25 -66 45 -62 37
-145 66 -202 70 -30 2 -33 5 -33 33 0 53 -40 169 -76 218 -27 37 -40 47 -62
47 -35 0 -153 -39 -170 -57 -7 -7 -17 -13 -21 -13 -5 0 -25 -13 -46 -30 -36
-29 -38 -29 -54 -12 -42 48 -185 112 -250 112 -21 0 -35 -8 -49 -27z m154
-164 c79 -45 150 -143 156 -214 3 -37 12 -30 26 20 22 82 90 168 165 206 45
24 53 20 66 -29 31 -121 10 -225 -63 -311 -20 -23 -19 -23 16 3 83 62 214 85
303 53 49 -18 50 -38 3 -103 -41 -57 -120 -110 -185 -125 -55 -13 -71 -29 -28
-29 72 0 187 -84 237 -172 l25 -45 -36 -13 c-84 -31 -246 -13 -300 34 -36 30
-43 27 -17 -7 57 -75 75 -192 44 -294 l-13 -41 -45 21 c-66 31 -136 109 -161
179 -22 59 -34 72 -36 39 -6 -76 -141 -231 -203 -231 -38 0 -59 138 -36 227
13 49 29 82 56 117 13 17 11 17 -17 -2 -75 -52 -191 -74 -273 -52 -61 17 -65
23 -47 62 40 85 155 174 232 180 36 3 31 14 -9 21 -49 8 -97 32 -145 73 -46
40 -96 117 -88 138 6 15 77 37 127 38 73 2 136 -16 193 -55 32 -22 34 -15 8
21 -30 42 -50 125 -46 190 3 58 21 132 32 132 3 0 30 -14 59 -31z"/>
<path d="M1970 2147 c-65 -17 -110 -77 -110 -147 0 -56 22 -100 65 -129 28
-19 44 -23 83 -19 58 6 95 30 117 78 33 73 15 147 -47 193 -42 31 -64 36 -108
24z m65 -31 c42 -18 75 -69 75 -114 0 -121 -133 -174 -197 -79 -34 50 -31 112
7 159 17 20 40 39 53 41 12 2 23 5 25 6 1 0 18 -5 37 -13z"/>
</g>
</svg>
